<svg xmlns="http://www.w3.org/2000/svg" viewBox="0 0 64 64">
  <defs>
    <radialGradient id="shine" cx="35%" cy="35%" r="50%">
      <stop offset="0%" stop-color="#fff"/>
      <stop offset="40%" stop-color="#ccc"/>
      <stop offset="100%" stop-color="#666"/>
    </radialGradient>
  </defs>
  <!-- string -->
  <line x1="32" y1="0" x2="32" y2="14" stroke="#999" stroke-width="1.5"/>
  <!-- ball -->
  <circle cx="32" cy="34" r="20" fill="url(#shine)" stroke="#555" stroke-width="0.5"/>
  <!-- mirror tiles - horizontal bands -->
  <path d="M12.5,30 Q32,28 51.5,30" fill="none" stroke="#fff" stroke-width="0.6" opacity="0.7"/>
  <path d="M12,34 Q32,32 52,34" fill="none" stroke="#fff" stroke-width="0.6" opacity="0.5"/>
  <path d="M12.5,38 Q32,36 51.5,38" fill="none" stroke="#fff" stroke-width="0.6" opacity="0.7"/>
  <path d="M14,42 Q32,40 50,42" fill="none" stroke="#fff" stroke-width="0.6" opacity="0.5"/>
  <path d="M14,26 Q32,24 50,26" fill="none" stroke="#fff" stroke-width="0.6" opacity="0.5"/>
  <path d="M17,22 Q32,20 47,22" fill="none" stroke="#fff" stroke-width="0.6" opacity="0.4"/>
  <path d="M17,46 Q32,44 47,46" fill="none" stroke="#fff" stroke-width="0.6" opacity="0.4"/>
  <!-- mirror tiles - vertical bands -->
  <path d="M24,14.5 Q22,34 24,53.5" fill="none" stroke="#fff" stroke-width="0.6" opacity="0.5"/>
  <path d="M28,14 Q26,34 28,54" fill="none" stroke="#fff" stroke-width="0.6" opacity="0.4"/>
  <path d="M32,14 Q32,34 32,54" fill="none" stroke="#fff" stroke-width="0.6" opacity="0.6"/>
  <path d="M36,14 Q38,34 36,54" fill="none" stroke="#fff" stroke-width="0.6" opacity="0.4"/>
  <path d="M40,14.5 Q42,34 40,53.5" fill="none" stroke="#fff" stroke-width="0.6" opacity="0.5"/>
  <!-- sparkle highlights -->
  <circle cx="26" cy="28" r="1.5" fill="#fff" opacity="0.9"/>
  <circle cx="37" cy="32" r="1" fill="#fff" opacity="0.7"/>
  <circle cx="30" cy="40" r="1.2" fill="#fff" opacity="0.8"/>
  <circle cx="40" cy="26" r="0.8" fill="#fff" opacity="0.6"/>
</svg>
